<svg width="36" height="36" viewBox="0 0 36 36" fill="none" xmlns="http://www.w3.org/2000/svg">
<path d="M36 0H0V36H36V0Z" fill="black"/>
<path d="M9.7992 14.1916H12.2065L10.2121 23.5159H7.7868L9.7992 14.1916Z" fill="white"/>
<path d="M15.0091 23.6956C13.5478 23.6956 12.8173 22.9363 12.8175 21.4178C12.8178 21.1975 12.8327 20.9774 12.8621 20.7591C12.8921 20.5332 12.9369 20.2898 12.9966 20.0288L14.2547 14.1917H16.6436L15.512 19.4996C15.4344 19.7952 15.3922 20.099 15.3863 20.4046C15.3863 21.2336 15.7515 21.6478 16.4821 21.6473C16.779 21.6429 17.0721 21.5801 17.3447 21.4624C17.6679 21.3249 17.9678 21.138 18.2336 20.9083C18.5488 20.6374 18.8242 20.3234 19.0516 19.9755L20.2906 14.1917H22.6979L21.2973 20.7577C21.2765 20.8153 21.2613 20.8748 21.2519 20.9353C21.2461 20.9824 21.2432 21.0297 21.2432 21.0771C21.2432 21.3257 21.3864 21.4558 21.6745 21.4675L21.2431 23.5158C21.0275 23.5516 20.8357 23.5816 20.6678 23.6057C20.5256 23.6289 20.381 23.6348 20.2373 23.6232C19.8961 23.6527 19.5547 23.5684 19.2665 23.3835C19.1482 23.2974 19.0533 23.1831 18.9906 23.0509C18.9279 22.9187 18.8993 22.773 18.9076 22.6269C18.9076 22.5677 18.9105 22.4997 18.9163 22.4222C18.9222 22.3454 18.9346 22.2533 18.9522 22.1466C18.9704 22.0399 18.9975 21.9156 19.0333 21.7738C18.521 22.3727 17.8913 22.8601 17.1831 23.2058C16.5047 23.5311 15.7614 23.6985 15.0091 23.6956Z" fill="white"/>
<path d="M25.2849 23.6955C24.7848 23.7272 24.2902 23.5769 23.8923 23.2723C23.7251 23.1226 23.5939 22.9371 23.5083 22.7297C23.4227 22.5223 23.3851 22.2982 23.3982 22.0742C23.3979 21.9567 23.404 21.8393 23.4164 21.7225C23.4275 21.6107 23.4456 21.4996 23.4705 21.3899L25.8054 10.4014H28.2133L26.0568 20.512C26.0452 20.5844 26.0364 20.6502 26.0305 20.7101C26.0241 20.7701 26.0209 20.8304 26.021 20.8907C26.0066 20.9909 26.0156 21.0931 26.0475 21.1892C26.0794 21.2853 26.1332 21.3727 26.2047 21.4444C26.2762 21.5161 26.3634 21.5702 26.4594 21.6024C26.5554 21.6345 26.6576 21.6439 26.7579 21.6297C26.9126 21.6265 27.0664 21.6054 27.2162 21.5669C27.3881 21.5251 27.554 21.4615 27.7097 21.3775L27.638 23.2102C27.2639 23.3743 26.8722 23.4949 26.4706 23.5698C26.0802 23.6491 25.6832 23.6912 25.2849 23.6955V23.6955Z" fill="white"/>
<path d="M11.4357 13.1578C12.2973 13.1578 12.9957 12.4593 12.9957 11.5977C12.9957 10.7361 12.2973 10.0377 11.4357 10.0377C10.5741 10.0377 9.87561 10.7361 9.87561 11.5977C9.87561 12.4593 10.5741 13.1578 11.4357 13.1578Z" fill="#FF5400"/>
</svg>
